
		<svg xmlns="http://www.w3.org/2000/svg" xmlns:xlink="http://www.w3.org/1999/xlink" version="1.1" width="3116.731517509728" height="712.0622568093385">
			
			<g transform="scale(5.836575875486381) translate(10, 10)">
				<defs id="SvgjsDefs1088"/><g id="SvgjsG1089" featureKey="root" fill="#fff"/><g id="SvgjsG1090" featureKey="symbol1" fill="#fff" transform="matrix(1.0459558507095197,0,0,1.0459558507095197,-17.258271536707074,-1.464339786995297)"><path xmlns="http://www.w3.org/2000/svg" d="M63.3,85V70.3c-0.1-0.6-0.3-1.1-0.5-1.6c-0.4-0.7-2.3-4.2-3-6.9c-0.4-1.5-0.8-4.2-0.8-6.6c-0.1-4.6,0.7-6,1.4-6.8  c0.6-0.6,0.9-0.9,1.7-1.5c0.4-0.3,0.8-0.6,1.2-0.8V29.4h2.8V32c0.9-1.5,2.2-2.3,3.5-2.8v-3.8h-3.3v-7.5h-3.4l-5.2-5.5v-11h-1.3v11.2  l-5,5.3H48v7.5h-3.3v28.9h-3.3v-6.9H38l-5.2-5.5v-11h-1.3V42l-5,5.3H23v6.9h-3.3V56v30.8h-3.2V88h28.2h20.4l-0.3-3H63.3z M26.1,84.7  h-2.9v-7.9h2.9V84.7z M26.1,74.8h-2.9v-7.9h2.9V74.8z M26.1,64.9h-2.9v-7.9h2.9V64.9z M33.7,84.7h-2.9v-7.9h2.9V84.7z M33.7,74.8  h-2.9v-7.9h2.9V74.8z M33.7,64.9h-2.9v-7.9h2.9V64.9z M41.2,84.7h-2.9v-7.9h2.9V84.7z M41.2,74.8h-2.9v-7.9h2.9V74.8z M41.2,64.9  h-2.9v-7.9h2.9V64.9z M51,85h-2.8V29.4H51V85z M58.5,85h-2.8V29.4h2.8V85z M72.4,44.6L72.4,44.6c-6.1-0.1-5.2-8.2-5.2-8.2  c0.2-5.4,4.8-5.4,5.2-5.3c0.4,0,5-0.1,5.2,5.3C77.6,36.4,78.5,44.5,72.4,44.6L72.4,44.6C72.5,44.6,72.4,44.6,72.4,44.6  C72.4,44.6,72.4,44.6,72.4,44.6z M82.7,50.1c1.2,1.2,0.7,8.5,0,11.1c-0.7,2.6-2.8,6.4-2.8,6.4c-0.4,1-0.7,2-0.8,3l-2.7,26.5  c-0.1,0.8-0.8,1.5-1.6,1.5h-2.3h-2.3c-0.8,0-1.6-0.6-1.6-1.5l-2.7-26.5c-0.1-1-0.4-2.1-0.8-3c0,0-2.1-3.8-2.8-6.4  c-0.7-2.6-1.2-9.9,0-11.1c0.5-0.5,0.8-0.8,1.4-1.2c2.2-1.7,5-2.8,5-2.8l2.1,6.7l1.2-3.5c-2.2-3.1,0.3-3.2,0.6-3.2  c0.3,0,2.8,0.1,0.6,3.2l1.2,3.5l2.1-6.7c0,0,2.8,1.1,5,2.8C81.9,49.3,82.2,49.6,82.7,50.1z"/></g><g id="SvgjsG1091" featureKey="text1" fill="#fff" transform="matrix(3.9999994913737624,0,0,3.9999994913737624,89.68999678858162,1.0000101725247497)"><path d="M14.1 5.32 c0.14 0.2 0.16 0.44 0.08 0.66 l-5.48 13.54 c-0.12 0.28 -0.38 0.44 -0.66 0.44 l-1.76 0 c-0.3 0 -0.56 -0.16 -0.66 -0.44 l-5.48 -13.54 c-0.1 -0.22 -0.08 -0.46 0.06 -0.66 s0.36 -0.32 0.58 -0.32 l6.68 0 c0.38 0 0.7 0.32 0.7 0.72 l0 1.46 c0 0.4 -0.32 0.72 -0.7 0.72 l-3.36 0 l3.06 7.7 l4.02 -10.16 c0.1 -0.26 0.36 -0.44 0.66 -0.44 l1.68 0 c0.24 0 0.46 0.12 0.58 0.32 z M25.4 14.1 l3.02 4.62 c0.14 0.22 0.16 0.48 0.02 0.72 c-0.12 0.22 -0.36 0.36 -0.6 0.36 l-1.82 0 c-0.24 0 -0.46 -0.12 -0.58 -0.32 l-3.04 -4.82 l-3.56 0 l0 4.44 c0 0.38 -0.32 0.7 -0.7 0.7 l-1.52 0 c-0.38 0 -0.7 -0.32 -0.7 -0.7 l0 -6.58 c0 -0.38 0.32 -0.7 0.7 -0.7 l6.16 0 c1.16 0 1.94 -0.32 2.34 -1 c0.14 -0.22 0.2 -0.54 0.2 -0.92 c0 -0.66 -0.2 -1.12 -0.62 -1.48 c-0.44 -0.4 -1.06 -0.58 -1.84 -0.58 l-6.24 0 c-0.38 0 -0.7 -0.32 -0.7 -0.7 l0 -1.44 c0 -0.38 0.32 -0.7 0.7 -0.7 l6.42 0 c1.54 0 2.8 0.44 3.74 1.32 c0.98 0.88 1.46 2.08 1.46 3.58 c0 1.94 -0.86 3.34 -2.5 4.06 c-0.1 0.04 -0.22 0.1 -0.34 0.14 z M37.44 5 c2.16 0 3.98 0.74 5.38 2.2 c1.36 1.42 2.06 3.2 2.06 5.3 s-0.7 3.88 -2.06 5.3 c-1.4 1.46 -3.22 2.2 -5.38 2.2 s-3.98 -0.74 -5.38 -2.2 c-1.36 -1.42 -2.06 -3.2 -2.06 -5.3 s0.7 -3.88 2.06 -5.3 c1.4 -1.46 3.22 -2.2 5.38 -2.2 z M37.44 17.14 c1.4 0 2.48 -0.44 3.32 -1.32 c0.82 -0.86 1.22 -1.96 1.22 -3.32 s-0.4 -2.44 -1.22 -3.32 c-0.84 -0.88 -1.92 -1.32 -3.32 -1.32 s-2.48 0.44 -3.32 1.32 c-0.82 0.88 -1.22 1.96 -1.22 3.32 s0.4 2.46 1.22 3.32 c0.84 0.88 1.92 1.32 3.32 1.32 z M57.559999999999995 5 c0.4 0 0.7 0.32 0.7 0.7 l0 1.44 c0 0.38 -0.3 0.7 -0.7 0.7 l-7.38 0 l0 3.22 l6.5 0 c0.4 0 0.7 0.32 0.7 0.7 l0 1.46 c0 0.38 -0.3 0.7 -0.7 0.7 l-6.5 0 l0 5.06 c0 0.38 -0.32 0.7 -0.7 0.7 l-1.5 0 c-0.38 0 -0.7 -0.32 -0.7 -0.7 l0 -13.28 c0 -0.38 0.32 -0.7 0.7 -0.7 l9.58 0 z M70.64 5 c0.4 0 0.7 0.32 0.7 0.7 l0 1.44 c0 0.38 -0.3 0.7 -0.7 0.7 l-7.38 0 l0 3.22 l6.5 0 c0.4 0 0.7 0.32 0.7 0.7 l0 1.46 c0 0.38 -0.3 0.7 -0.7 0.7 l-6.5 0 l0 5.06 c0 0.38 -0.32 0.7 -0.7 0.7 l-1.5 0 c-0.38 0 -0.7 -0.32 -0.7 -0.7 l0 -13.28 c0 -0.38 0.32 -0.7 0.7 -0.7 l9.58 0 z M75.63999999999999 5 c0.38 0 0.7 0.32 0.7 0.7 l0 13.28 c0 0.38 -0.32 0.7 -0.7 0.7 l-1.5 0 c-0.38 0 -0.7 -0.32 -0.7 -0.7 l0 -13.28 c0 -0.38 0.32 -0.7 0.7 -0.7 l1.5 0 z M84.1 8.22 c-0.52 0.22 -0.98 0.54 -1.34 0.96 c-0.76 0.84 -1.12 1.94 -1.12 3.32 s0.36 2.48 1.12 3.34 c0.78 0.88 1.9 1.3 3.44 1.3 c0.82 0 1.5 -0.2 2.1 -0.6 c0.62 -0.42 1.06 -0.94 1.36 -1.64 c0.1 -0.26 0.36 -0.42 0.64 -0.42 l1.58 0 c0.22 0 0.44 0.1 0.56 0.28 c0.14 0.2 0.18 0.42 0.1 0.64 c-0.5 1.4 -1.32 2.5 -2.44 3.3 c-1.2 0.86 -2.62 1.3 -4.24 1.3 c-2.14 0 -3.9 -0.74 -5.24 -2.22 c-1.24 -1.4 -1.88 -3.18 -1.88 -5.28 s0.64 -3.88 1.88 -5.28 c1.34 -1.48 3.1 -2.22 5.24 -2.22 c1.62 0 3.04 0.44 4.24 1.3 c1.12 0.8 1.94 1.92 2.44 3.3 c0.08 0.22 0.04 0.46 -0.1 0.64 c-0.12 0.18 -0.34 0.28 -0.56 0.28 l-1.58 0 c-0.28 0 -0.54 -0.16 -0.64 -0.42 c-0.3 -0.7 -0.74 -1.22 -1.36 -1.64 c-0.6 -0.4 -1.28 -0.6 -2.1 -0.6 c-0.86 0 -1.56 0.12 -2.1 0.36 z M105.3 5 c0.4 0 0.7 0.32 0.7 0.7 l0 1.44 c0 0.38 -0.3 0.7 -0.7 0.7 l-7.56 0 l0 3.06 l6.68 0 c0.4 0 0.7 0.32 0.7 0.7 l0 1.46 c0 0.38 -0.3 0.7 -0.7 0.7 l-6.68 0 l0 3.08 l7.56 0 c0.4 0 0.7 0.32 0.7 0.7 l0 1.44 c0 0.38 -0.3 0.7 -0.7 0.7 l-9.76 0 c-0.38 0 -0.7 -0.32 -0.7 -0.7 l0 -13.28 c0 -0.38 0.32 -0.7 0.7 -0.7 l9.76 0 z"/></g>
			</g>
		</svg>
	